<svg width="20" height="21" viewBox="0 0 20 21" fill="none" xmlns="http://www.w3.org/2000/svg">
<g clip-path="url(#clip0_4351_770)">
<path fill-rule="evenodd" clip-rule="evenodd" d="M12.5 15.7183C12.5 15.884 12.4342 16.043 12.3169 16.1602C12.1997 16.2774 12.0408 16.3433 11.875 16.3433H1.875C1.70924 16.3433 1.55027 16.2774 1.43306 16.1602C1.31585 16.043 1.25 15.884 1.25 15.7183V4.46826C1.25 4.3025 1.31585 4.14353 1.43306 4.02632C1.55027 3.90911 1.70924 3.84326 1.875 3.84326H11.875C12.0408 3.84326 12.1997 3.90911 12.3169 4.02632C12.4342 4.14353 12.5 4.3025 12.5 4.46826V6.96826C12.5 7.13402 12.5658 7.29299 12.6831 7.4102C12.8003 7.52741 12.9592 7.59326 13.125 7.59326C13.2908 7.59326 13.4497 7.52741 13.5669 7.4102C13.6842 7.29299 13.75 7.13402 13.75 6.96826V4.46826C13.75 3.97098 13.5525 3.49407 13.2008 3.14244C12.8492 2.79081 12.3723 2.59326 11.875 2.59326H1.875C1.37772 2.59326 0.900805 2.79081 0.549175 3.14244C0.197544 3.49407 0 3.97098 0 4.46826L0 15.7183C0 16.2155 0.197544 16.6925 0.549175 17.0441C0.900805 17.3957 1.37772 17.5933 1.875 17.5933H11.875C12.3723 17.5933 12.8492 17.3957 13.2008 17.0441C13.5525 16.6925 13.75 16.2155 13.75 15.7183V13.2183C13.75 13.0525 13.6842 12.8935 13.5669 12.7763C13.4497 12.6591 13.2908 12.5933 13.125 12.5933C12.9592 12.5933 12.8003 12.6591 12.6831 12.7763C12.5658 12.8935 12.5 13.0525 12.5 13.2183V15.7183Z" fill="white"/>
<path fill-rule="evenodd" clip-rule="evenodd" d="M19.8175 10.5356C19.8757 10.4776 19.9219 10.4086 19.9534 10.3327C19.9849 10.2567 20.0011 10.1753 20.0011 10.0931C20.0011 10.0109 19.9849 9.92952 19.9534 9.85359C19.9219 9.77766 19.8757 9.70869 19.8175 9.65064L16.0675 5.90064C15.9501 5.78328 15.791 5.71735 15.625 5.71735C15.459 5.71735 15.2999 5.78328 15.1825 5.90064C15.0651 6.01799 14.9992 6.17717 14.9992 6.34314C14.9992 6.50911 15.0651 6.66828 15.1825 6.78564L17.8663 9.46814H6.875C6.70924 9.46814 6.55027 9.53398 6.43306 9.65119C6.31585 9.7684 6.25 9.92738 6.25 10.0931C6.25 10.2589 6.31585 10.4179 6.43306 10.5351C6.55027 10.6523 6.70924 10.7181 6.875 10.7181H17.8663L15.1825 13.4006C15.0651 13.518 14.9992 13.6772 14.9992 13.8431C14.9992 14.0091 15.0651 14.1683 15.1825 14.2856C15.2999 14.403 15.459 14.4689 15.625 14.4689C15.791 14.4689 15.9501 14.403 16.0675 14.2856L19.8175 10.5356V10.5356Z" fill="white"/>
</g>
<defs>
<clipPath id="clip0_4351_770">
<rect width="20" height="20" fill="white" transform="translate(0 0.0932617)"/>
</clipPath>
</defs>
</svg>
