<svg width="32" height="32" viewBox="0 0 32 32" fill="none" xmlns="http://www.w3.org/2000/svg">
<rect width="32" height="32" rx="8" fill="#F31B28"/>
<path d="M8.5 11.8334C8.5 11.3914 8.67559 10.9675 8.98816 10.6549C9.30072 10.3423 9.72464 10.1667 10.1667 10.1667H21.8333C22.2754 10.1667 22.6993 10.3423 23.0118 10.6549C23.3244 10.9675 23.5 11.3914 23.5 11.8334M8.5 11.8334V20.1667C8.5 20.6088 8.67559 21.0327 8.98816 21.3453C9.30072 21.6578 9.72464 21.8334 10.1667 21.8334H21.8333C22.2754 21.8334 22.6993 21.6578 23.0118 21.3453C23.3244 21.0327 23.5 20.6088 23.5 20.1667V11.8334M8.5 11.8334L16 16.8334L23.5 11.8334" stroke="white" stroke-width="1.5" stroke-linecap="round" stroke-linejoin="round"/>
</svg>
