<svg width="32" height="32" viewBox="0 0 32 32" fill="none" xmlns="http://www.w3.org/2000/svg">
<rect width="32" height="32" rx="8" fill="#F31B28"/>
<path d="M8.5 11.8332C8.5 11.3911 8.67559 10.9672 8.98816 10.6547C9.30072 10.3421 9.72464 10.1665 10.1667 10.1665H21.8333C22.2754 10.1665 22.6993 10.3421 23.0118 10.6547C23.3244 10.9672 23.5 11.3911 23.5 11.8332M8.5 11.8332V20.1665C8.5 20.6085 8.67559 21.0325 8.98816 21.345C9.30072 21.6576 9.72464 21.8332 10.1667 21.8332H21.8333C22.2754 21.8332 22.6993 21.6576 23.0118 21.345C23.3244 21.0325 23.5 20.6085 23.5 20.1665V11.8332M8.5 11.8332L16 16.8332L23.5 11.8332" stroke="white" stroke-width="1.5" stroke-linecap="round" stroke-linejoin="round"/>
</svg>
