<svg width="20" height="21" viewBox="0 0 20 21" fill="none" xmlns="http://www.w3.org/2000/svg">
<path d="M13.332 2.59326V5.92659M6.66536 2.59326V5.92659M3.33203 9.25993H16.6654M3.33203 5.92659C3.33203 5.48457 3.50763 5.06064 3.82019 4.74808C4.13275 4.43552 4.55667 4.25993 4.9987 4.25993H14.9987C15.4407 4.25993 15.8646 4.43552 16.1772 4.74808C16.4898 5.06064 16.6654 5.48457 16.6654 5.92659V15.9266C16.6654 16.3686 16.4898 16.7925 16.1772 17.1051C15.8646 17.4177 15.4407 17.5933 14.9987 17.5933H4.9987C4.55667 17.5933 4.13275 17.4177 3.82019 17.1051C3.50763 16.7925 3.33203 16.3686 3.33203 15.9266V5.92659ZM6.66536 12.5933H8.33203V14.2599H6.66536V12.5933Z" stroke="#F31B28" stroke-width="1.5" stroke-linecap="round" stroke-linejoin="round"/>
</svg>
