<svg width="33" height="32" viewBox="0 0 33 32" fill="none" xmlns="http://www.w3.org/2000/svg">
<path d="M5.83203 18.6667V14.6667C5.83203 11.8377 6.95584 9.12458 8.95623 7.12419C10.9566 5.12381 13.6697 4 16.4987 4C19.3277 4 22.0408 5.12381 24.0412 7.12419C26.0416 9.12458 27.1654 11.8377 27.1654 14.6667V18.6667M5.83203 18.6667C5.83203 17.9594 6.11298 17.2811 6.61308 16.781C7.11318 16.281 7.79145 16 8.4987 16H9.83203C10.5393 16 11.2176 16.281 11.7176 16.781C12.2177 17.2811 12.4987 17.9594 12.4987 18.6667V22.6667C12.4987 23.3739 12.2177 24.0522 11.7176 24.5523C11.2176 25.0524 10.5393 25.3333 9.83203 25.3333H8.4987C7.79145 25.3333 7.11318 25.0524 6.61308 24.5523C6.11298 24.0522 5.83203 23.3739 5.83203 22.6667V18.6667ZM27.1654 18.6667C27.1654 17.9594 26.8844 17.2811 26.3843 16.781C25.8842 16.281 25.2059 16 24.4987 16H23.1654C22.4581 16 21.7798 16.281 21.2797 16.781C20.7797 17.2811 20.4987 17.9594 20.4987 18.6667V22.6667C20.4987 23.3739 20.7797 24.0522 21.2797 24.5523C21.7798 25.0524 22.4581 25.3333 23.1654 25.3333H24.4987M27.1654 18.6667V22.6667C27.1654 23.3739 26.8844 24.0522 26.3843 24.5523C25.8842 25.0524 25.2059 25.3333 24.4987 25.3333M24.4987 25.3333C24.4987 27.5427 20.9174 29.3333 16.4987 29.3333" stroke="white" stroke-width="2.5" stroke-linecap="round" stroke-linejoin="round"/>
</svg>
