<svg width="20" height="20" viewBox="0 0 20 20" fill="none" xmlns="http://www.w3.org/2000/svg">
<path d="M11.6667 6.66683V5.00016C11.6667 4.55814 11.4911 4.13421 11.1785 3.82165C10.866 3.50909 10.442 3.3335 10 3.3335H4.16667C3.72464 3.3335 3.30072 3.50909 2.98816 3.82165C2.67559 4.13421 2.5 4.55814 2.5 5.00016V15.0002C2.5 15.4422 2.67559 15.8661 2.98816 16.1787C3.30072 16.4912 3.72464 16.6668 4.16667 16.6668H10C10.442 16.6668 10.866 16.4912 11.1785 16.1787C11.4911 15.8661 11.6667 15.4422 11.6667 15.0002V13.3335M5.83333 10.0002H17.5M17.5 10.0002L15 7.50016M17.5 10.0002L15 12.5002" stroke="white" stroke-width="1.5" stroke-linecap="round" stroke-linejoin="round"/>
</svg>
