<svg width="32" height="32" viewBox="0 0 32 32" fill="none" xmlns="http://www.w3.org/2000/svg">
<rect width="32" height="32" rx="8" fill="white"/>
<path d="M23.7637 11.8745C23.6662 11.5115 23.4751 11.1805 23.2096 10.9146C22.944 10.6487 22.6132 10.4572 22.2503 10.3592C20.9146 10 15.5605 10 15.5605 10C15.5605 10 10.2064 10 8.8707 10.3573C8.50768 10.4549 8.17673 10.6463 7.91109 10.9123C7.64545 11.1783 7.45447 11.5095 7.35732 11.8726C7 13.2102 7 16 7 16C7 16 7 18.7898 7.35732 20.1255C7.55414 20.8631 8.13503 21.4439 8.8707 21.6408C10.2064 22 15.5605 22 15.5605 22C15.5605 22 20.9146 22 22.2503 21.6408C22.9879 21.4439 23.5669 20.8631 23.7637 20.1255C24.121 18.7898 24.121 16 24.121 16C24.121 16 24.121 13.2102 23.7637 11.8745ZM13.8599 18.5605V13.4395L18.293 15.9809L13.8599 18.5605Z" fill="#F31B28"/>
</svg>
