<svg width="32" height="33" viewBox="0 0 32 33" fill="none" xmlns="http://www.w3.org/2000/svg">
<rect y="0.0932617" width="32" height="32" rx="8" fill="white"/>
<path d="M23.7637 11.9678C23.6662 11.6048 23.4751 11.2738 23.2096 11.0079C22.944 10.7419 22.6132 10.5504 22.2503 10.4525C20.9146 10.0933 15.5605 10.0933 15.5605 10.0933C15.5605 10.0933 10.2064 10.0933 8.8707 10.4506C8.50768 10.5482 8.17673 10.7396 7.91109 11.0056C7.64545 11.2715 7.45447 11.6027 7.35732 11.9659C7 13.3035 7 16.0933 7 16.0933C7 16.0933 7 18.8831 7.35732 20.2187C7.55414 20.9563 8.13503 21.5372 8.8707 21.734C10.2064 22.0933 15.5605 22.0933 15.5605 22.0933C15.5605 22.0933 20.9146 22.0933 22.2503 21.734C22.9879 21.5372 23.5669 20.9563 23.7637 20.2187C24.121 18.8831 24.121 16.0933 24.121 16.0933C24.121 16.0933 24.121 13.3035 23.7637 11.9678ZM13.8599 18.6538V13.5328L18.293 16.0742L13.8599 18.6538Z" fill="#F31B28"/>
</svg>
