<svg width="32" height="33" viewBox="0 0 32 33" fill="none" xmlns="http://www.w3.org/2000/svg">
<rect y="0.0932617" width="32" height="32" rx="8" fill="white"/>
<path d="M15.998 11.9885C13.7265 11.9885 11.8932 13.8217 11.8932 16.0933C11.8932 18.3648 13.7265 20.198 15.998 20.198C18.2695 20.198 20.1028 18.3648 20.1028 16.0933C20.1028 13.8217 18.2695 11.9885 15.998 11.9885ZM15.998 18.7611C14.529 18.7611 13.3302 17.5623 13.3302 16.0933C13.3302 14.6243 14.529 13.4255 15.998 13.4255C17.467 13.4255 18.6658 14.6243 18.6658 16.0933C18.6658 17.5623 17.467 18.7611 15.998 18.7611ZM20.2709 10.8637C19.7405 10.8637 19.3122 11.292 19.3122 11.8224C19.3122 12.3527 19.7405 12.781 20.2709 12.781C20.8012 12.781 21.2295 12.3547 21.2295 11.8224C21.2297 11.6964 21.205 11.5717 21.1569 11.4553C21.1088 11.339 21.0382 11.2332 20.9491 11.1442C20.8601 11.0551 20.7543 10.9845 20.6379 10.9364C20.5216 10.8883 20.3968 10.8636 20.2709 10.8637ZM23.9994 16.0933C23.9994 14.9885 24.0094 13.8938 23.9474 12.791C23.8853 11.5102 23.5931 10.3734 22.6565 9.43676C21.7179 8.49813 20.5831 8.20793 19.3022 8.14589C18.1975 8.08385 17.1027 8.09386 16 8.09386C14.8953 8.09386 13.8005 8.08385 12.6978 8.14589C11.4169 8.20793 10.2801 8.50013 9.3435 9.43676C8.40487 10.3754 8.11467 11.5102 8.05263 12.791C7.99059 13.8958 8.0006 14.9905 8.0006 16.0933C8.0006 17.196 7.99059 18.2927 8.05263 19.3955C8.11467 20.6764 8.40687 21.8131 9.3435 22.7498C10.2821 23.6884 11.4169 23.9786 12.6978 24.0406C13.8025 24.1027 14.8973 24.0927 16 24.0927C17.1047 24.0927 18.1995 24.1027 19.3022 24.0406C20.5831 23.9786 21.7199 23.6864 22.6565 22.7498C23.5951 21.8111 23.8853 20.6764 23.9474 19.3955C24.0114 18.2927 23.9994 17.198 23.9994 16.0933ZM22.2382 20.8125C22.0921 21.1767 21.916 21.4489 21.6338 21.7291C21.3516 22.0113 21.0814 22.1874 20.7172 22.3335C19.6645 22.7518 17.1648 22.6577 15.998 22.6577C14.8312 22.6577 12.3295 22.7518 11.2768 22.3355C10.9126 22.1894 10.6404 22.0133 10.3602 21.7311C10.078 21.4489 9.90188 21.1787 9.75578 20.8145C9.3395 19.7597 9.43356 17.26 9.43356 16.0933C9.43356 14.9265 9.3395 12.4248 9.75578 11.3721C9.90188 11.0078 10.078 10.7356 10.3602 10.4555C10.6424 10.1753 10.9126 9.99714 11.2768 9.85104C12.3295 9.43476 14.8312 9.52883 15.998 9.52883C17.1648 9.52883 19.6665 9.43476 20.7192 9.85104C21.0834 9.99714 21.3556 10.1733 21.6358 10.4555C21.918 10.7376 22.0941 11.0078 22.2402 11.3721C22.6565 12.4248 22.5624 14.9265 22.5624 16.0933C22.5624 17.26 22.6565 19.7597 22.2382 20.8125Z" fill="#F31B28"/>
</svg>
