<svg width="32" height="32" viewBox="0 0 32 32" fill="none" xmlns="http://www.w3.org/2000/svg">
<rect width="32" height="32" rx="8" fill="#F31B28"/>
<path d="M18.5 11.8333C18.942 11.8333 19.366 12.0089 19.6785 12.3215C19.9911 12.634 20.1667 13.058 20.1667 13.5M18.5 8.5C19.8261 8.5 21.0979 9.02678 22.0355 9.96447C22.9732 10.9021 23.5 12.1739 23.5 13.5M10.1667 9.33333H13.5L15.1667 13.5L13.0833 14.75C13.9758 16.5596 15.4404 18.0242 17.25 18.9167L18.5 16.8333L22.6667 18.5V21.8333C22.6667 22.2754 22.4911 22.6993 22.1785 23.0118C21.866 23.3244 21.442 23.5 21 23.5C17.7494 23.3025 14.6835 21.9221 12.3807 19.6193C10.0779 17.3165 8.69754 14.2506 8.5 11C8.5 10.558 8.67559 10.134 8.98816 9.82149C9.30072 9.50893 9.72464 9.33333 10.1667 9.33333Z" stroke="white" stroke-width="1.5" stroke-linecap="round" stroke-linejoin="round"/>
</svg>
