<svg width="32" height="33" viewBox="0 0 32 33" fill="none" xmlns="http://www.w3.org/2000/svg">
<rect y="0.0932617" width="32" height="32" rx="8" fill="#F31B28"/>
<path d="M18.5 11.9266C18.942 11.9266 19.366 12.1022 19.6785 12.4148C19.9911 12.7273 20.1667 13.1512 20.1667 13.5933M18.5 8.59326C19.8261 8.59326 21.0979 9.12005 22.0355 10.0577C22.9732 10.9954 23.5 12.2672 23.5 13.5933M10.1667 9.4266H13.5L15.1667 13.5933L13.0833 14.8433C13.9758 16.6529 15.4404 18.1175 17.25 19.0099L18.5 16.9266L22.6667 18.5933V21.9266C22.6667 22.3686 22.4911 22.7925 22.1785 23.1051C21.866 23.4177 21.442 23.5933 21 23.5933C17.7494 23.3957 14.6835 22.0153 12.3807 19.7126C10.0779 17.4098 8.69754 14.3439 8.5 11.0933C8.5 10.6512 8.67559 10.2273 8.98816 9.91475C9.30072 9.60219 9.72464 9.4266 10.1667 9.4266Z" stroke="white" stroke-width="1.5" stroke-linecap="round" stroke-linejoin="round"/>
</svg>
