<svg width="32" height="33" viewBox="0 0 32 33" fill="none" xmlns="http://www.w3.org/2000/svg">
<rect y="0.0932617" width="32" height="32" rx="8" fill="#F31B28"/>
<path d="M8.5 11.9267C8.5 11.4846 8.67559 11.0607 8.98816 10.7482C9.30072 10.4356 9.72464 10.26 10.1667 10.26H21.8333C22.2754 10.26 22.6993 10.4356 23.0118 10.7482C23.3244 11.0607 23.5 11.4846 23.5 11.9267M8.5 11.9267V20.26C8.5 20.702 8.67559 21.126 8.98816 21.4385C9.30072 21.7511 9.72464 21.9267 10.1667 21.9267H21.8333C22.2754 21.9267 22.6993 21.7511 23.0118 21.4385C23.3244 21.126 23.5 20.702 23.5 20.26V11.9267M8.5 11.9267L16 16.9267L23.5 11.9267" stroke="white" stroke-width="1.5" stroke-linecap="round" stroke-linejoin="round"/>
</svg>
