<svg width="32" height="32" viewBox="0 0 32 32" fill="none" xmlns="http://www.w3.org/2000/svg">
<rect width="32" height="32" rx="8" fill="#F31B28"/>
<path d="M8.5 11.8333C8.5 11.3913 8.67559 10.9674 8.98816 10.6548C9.30072 10.3423 9.72464 10.1667 10.1667 10.1667H21.8333C22.2754 10.1667 22.6993 10.3423 23.0118 10.6548C23.3244 10.9674 23.5 11.3913 23.5 11.8333M8.5 11.8333V20.1667C8.5 20.6087 8.67559 21.0326 8.98816 21.3452C9.30072 21.6577 9.72464 21.8333 10.1667 21.8333H21.8333C22.2754 21.8333 22.6993 21.6577 23.0118 21.3452C23.3244 21.0326 23.5 20.6087 23.5 20.1667V11.8333M8.5 11.8333L16 16.8333L23.5 11.8333" stroke="white" stroke-width="1.5" stroke-linecap="round" stroke-linejoin="round"/>
</svg>
