<svg width="32" height="32" viewBox="0 0 32 32" fill="none" xmlns="http://www.w3.org/2000/svg">
<rect width="32" height="32" rx="8" fill="white"/>
<path d="M15.998 11.8952C13.7265 11.8952 11.8932 13.7285 11.8932 16C11.8932 18.2715 13.7265 20.1048 15.998 20.1048C18.2695 20.1048 20.1028 18.2715 20.1028 16C20.1028 13.7285 18.2695 11.8952 15.998 11.8952ZM15.998 18.6678C14.529 18.6678 13.3302 17.469 13.3302 16C13.3302 14.531 14.529 13.3322 15.998 13.3322C17.467 13.3322 18.6658 14.531 18.6658 16C18.6658 17.469 17.467 18.6678 15.998 18.6678ZM20.2709 10.7705C19.7405 10.7705 19.3122 11.1988 19.3122 11.7291C19.3122 12.2595 19.7405 12.6878 20.2709 12.6878C20.8012 12.6878 21.2295 12.2615 21.2295 11.7291C21.2297 11.6032 21.205 11.4784 21.1569 11.3621C21.1088 11.2457 21.0382 11.1399 20.9491 11.0509C20.8601 10.9618 20.7543 10.8912 20.6379 10.8431C20.5216 10.795 20.3968 10.7703 20.2709 10.7705ZM23.9994 16C23.9994 14.8953 24.0094 13.8005 23.9474 12.6978C23.8853 11.4169 23.5931 10.2801 22.6565 9.3435C21.7179 8.40487 20.5831 8.11467 19.3022 8.05263C18.1975 7.99059 17.1027 8.0006 16 8.0006C14.8953 8.0006 13.8005 7.99059 12.6978 8.05263C11.4169 8.11467 10.2801 8.40687 9.3435 9.3435C8.40487 10.2821 8.11467 11.4169 8.05263 12.6978C7.99059 13.8025 8.0006 14.8973 8.0006 16C8.0006 17.1027 7.99059 18.1995 8.05263 19.3022C8.11467 20.5831 8.40687 21.7199 9.3435 22.6565C10.2821 23.5951 11.4169 23.8853 12.6978 23.9474C13.8025 24.0094 14.8973 23.9994 16 23.9994C17.1047 23.9994 18.1995 24.0094 19.3022 23.9474C20.5831 23.8853 21.7199 23.5931 22.6565 22.6565C23.5951 21.7179 23.8853 20.5831 23.9474 19.3022C24.0114 18.1995 23.9994 17.1047 23.9994 16ZM22.2382 20.7192C22.0921 21.0834 21.916 21.3556 21.6338 21.6358C21.3516 21.918 21.0814 22.0941 20.7172 22.2402C19.6645 22.6585 17.1648 22.5644 15.998 22.5644C14.8312 22.5644 12.3295 22.6585 11.2768 22.2422C10.9126 22.0961 10.6404 21.92 10.3602 21.6378C10.078 21.3556 9.90188 21.0854 9.75578 20.7212C9.3395 19.6665 9.43356 17.1668 9.43356 16C9.43356 14.8332 9.3395 12.3315 9.75578 11.2788C9.90188 10.9146 10.078 10.6424 10.3602 10.3622C10.6424 10.082 10.9126 9.90388 11.2768 9.75778C12.3295 9.3415 14.8312 9.43556 15.998 9.43556C17.1648 9.43556 19.6665 9.3415 20.7192 9.75778C21.0834 9.90388 21.3556 10.08 21.6358 10.3622C21.918 10.6444 22.0941 10.9146 22.2402 11.2788C22.6565 12.3315 22.5624 14.8332 22.5624 16C22.5624 17.1668 22.6565 19.6665 22.2382 20.7192Z" fill="#F31B28"/>
</svg>
