<svg width="20" height="20" viewBox="0 0 20 20" fill="none" xmlns="http://www.w3.org/2000/svg">
<path d="M13.332 2.5V5.83333M6.66536 2.5V5.83333M3.33203 9.16667H16.6654M3.33203 5.83333C3.33203 5.39131 3.50763 4.96738 3.82019 4.65482C4.13275 4.34226 4.55667 4.16667 4.9987 4.16667H14.9987C15.4407 4.16667 15.8646 4.34226 16.1772 4.65482C16.4898 4.96738 16.6654 5.39131 16.6654 5.83333V15.8333C16.6654 16.2754 16.4898 16.6993 16.1772 17.0118C15.8646 17.3244 15.4407 17.5 14.9987 17.5H4.9987C4.55667 17.5 4.13275 17.3244 3.82019 17.0118C3.50763 16.6993 3.33203 16.2754 3.33203 15.8333V5.83333ZM6.66536 12.5H8.33203V14.1667H6.66536V12.5Z" stroke="#F31B28" stroke-width="1.5" stroke-linecap="round" stroke-linejoin="round"/>
</svg>
