<svg width="32" height="32" viewBox="0 0 32 32" fill="none" xmlns="http://www.w3.org/2000/svg">
<path d="M5.33203 18.6667V14.6667C5.33203 11.8377 6.45584 9.12458 8.45623 7.12419C10.4566 5.12381 13.1697 4 15.9987 4C18.8277 4 21.5408 5.12381 23.5412 7.12419C25.5416 9.12458 26.6654 11.8377 26.6654 14.6667V18.6667M5.33203 18.6667C5.33203 17.9594 5.61298 17.2811 6.11308 16.781C6.61318 16.281 7.29145 16 7.9987 16H9.33203C10.0393 16 10.7176 16.281 11.2176 16.781C11.7177 17.2811 11.9987 17.9594 11.9987 18.6667V22.6667C11.9987 23.3739 11.7177 24.0522 11.2176 24.5523C10.7176 25.0524 10.0393 25.3333 9.33203 25.3333H7.9987C7.29145 25.3333 6.61318 25.0524 6.11308 24.5523C5.61298 24.0522 5.33203 23.3739 5.33203 22.6667V18.6667ZM26.6654 18.6667C26.6654 17.9594 26.3844 17.2811 25.8843 16.781C25.3842 16.281 24.7059 16 23.9987 16H22.6654C21.9581 16 21.2798 16.281 20.7797 16.781C20.2797 17.2811 19.9987 17.9594 19.9987 18.6667V22.6667C19.9987 23.3739 20.2797 24.0522 20.7797 24.5523C21.2798 25.0524 21.9581 25.3333 22.6654 25.3333H23.9987M26.6654 18.6667V22.6667C26.6654 23.3739 26.3844 24.0522 25.8843 24.5523C25.3842 25.0524 24.7059 25.3333 23.9987 25.3333M23.9987 25.3333C23.9987 27.5427 20.4174 29.3333 15.9987 29.3333" stroke="white" stroke-width="2.5" stroke-linecap="round" stroke-linejoin="round"/>
</svg>
